<?xml version="1.0" encoding="utf-8"?>
<svg width="274" height="304" viewBox="0 0 274 304" xmlns="http://www.w3.org/2000/svg">
<rect id="frame" x="0" y="0" width="274" height="304" fill="#ffffbf" stroke="none" stroke-width="0"/>

<!-- Association has -->
<g class="page_0_4K5OKihm diagram_page" visibility="visible">
	<line x1="32" y1="68" x2="105" y2="68" stroke="#74add1" stroke-width="2"/>
	<text x="60" y="85" fill="#d73027" font-family="Verdana" font-size="12">1,1</text>
	<line x1="210" y1="68" x2="105" y2="68" stroke="#74add1" stroke-width="2"/>
	<text x="128" y="85" fill="#d73027" font-family="Verdana" font-size="12">1,N</text>
	<g>
		<path d="M109 43 a14 14 90 0 1 14 14 V68 h-36 V57 a14 14 90 0 1 14 -14" fill="#abd9e9" stroke="#abd9e9" stroke-width="0"/>
		<path d="M123 68 v11 a14 14 90 0 1 -14 14 H101 a14 14 90 0 1 -14 -14 V68 H36" fill="#e0f3f8" stroke="#e0f3f8" stroke-width="0"/>
		<rect x="87" y="43" width="36" height="50" fill="none" rx="14" stroke="#74add1" stroke-width="2"/>
		<line x1="87" y1="68" x2="123" y2="68" stroke="#74add1" stroke-width="1"/>
		<text x="94" y="60.75" fill="#000" font-family="Verdana" font-size="12">has</text>
	</g>
</g>

<!-- Association from -->
<g class="page_0_4K5OKihm diagram_page" visibility="visible">
	<line x1="210" y1="261" x2="210" y2="177" stroke="#74add1" stroke-width="2"/>
	<text x="215" y="219" fill="#d73027" font-family="Verdana" font-size="12">1,1</text>
	<line x1="210" y1="68" x2="210" y2="177" stroke="#74add1" stroke-width="2"/>
	<text x="215" y="144" fill="#d73027" font-family="Verdana" font-size="12">1,N</text>
	<g>
		<path d="M218 152 a14 14 90 0 1 14 14 V177 h-44 V166 a14 14 90 0 1 14 -14" fill="#abd9e9" stroke="#abd9e9" stroke-width="0"/>
		<path d="M232 177 v11 a14 14 90 0 1 -14 14 H202 a14 14 90 0 1 -14 -14 V177 H44" fill="#e0f3f8" stroke="#e0f3f8" stroke-width="0"/>
		<rect x="188" y="152" width="44" height="50" fill="none" rx="14" stroke="#74add1" stroke-width="2"/>
		<line x1="188" y1="177" x2="232" y2="177" stroke="#74add1" stroke-width="1"/>
		<text x="196" y="169.75" fill="#000" font-family="Verdana" font-size="12">from</text>
	</g>
</g>

<!-- Entity POST -->
<g class="page_0_4K5OKihm diagram_page" visibility="visible">
	<g>
		<rect x="9" y="43" width="46" height="25" fill="#fdae61" stroke="#fdae61" stroke-width="0" opacity="1"/>
		<rect x="9" y="68" width="46" height="25" fill="#fee090" stroke="#fee090" stroke-width="0" opacity="1"/>
		<rect x="9" y="43" width="46" height="50" fill="none" stroke="#f46d43" stroke-width="2" opacity="1"/>
		<line x1="9" y1="68" x2="55" y2="68" stroke="#f46d43" stroke-width="1"/>
	</g>
	<text x="16" y="60.75" fill="#000" font-family="Verdana" font-size="12">POST</text>
	<text x="14" y="85.8" fill="#000" font-family="Verdana" font-size="12">name</text>
	<line x1="14" y1="88" x2="49" y2="88" stroke="#000" stroke-width="1"/>
</g>

<!-- Entity APPLY -->
<g class="page_0_4K5OKihm diagram_page" visibility="visible">
	<g>
		<rect x="155" y="9" width="110" height="25" fill="#fdae61" stroke="#fdae61" stroke-width="0" opacity="1"/>
		<rect x="155" y="34" width="110" height="93" fill="#fee090" stroke="#fee090" stroke-width="0" opacity="1"/>
		<rect x="155" y="9" width="110" height="118" fill="none" stroke="#f46d43" stroke-width="2" opacity="1"/>
		<line x1="155" y1="34" x2="265" y2="34" stroke="#f46d43" stroke-width="1"/>
	</g>
	<text x="191" y="26.75" fill="#000" font-family="Verdana" font-size="12">APPLY</text>
	<text x="160" y="51.8" fill="#000" font-family="Verdana" font-size="12">business_name</text>
	<line x1="160" y1="54" x2="254" y2="54" stroke="#000" stroke-width="1"/>
	<text x="160" y="68.8" fill="#000" font-family="Verdana" font-size="12">contact_mail</text>
	<text x="160" y="85.8" fill="#000" font-family="Verdana" font-size="12">contact_phone</text>
	<text x="160" y="102.8" fill="#000" font-family="Verdana" font-size="12">contact_linkedin</text>
	<text x="160" y="119.8" fill="#000" font-family="Verdana" font-size="12">category</text>
</g>

<!-- Entity SOURCE -->
<g class="page_0_4K5OKihm diagram_page" visibility="visible">
	<g>
		<rect x="179" y="227" width="62" height="25" fill="#fdae61" stroke="#fdae61" stroke-width="0" opacity="1"/>
		<rect x="179" y="252" width="62" height="43" fill="#fee090" stroke="#fee090" stroke-width="0" opacity="1"/>
		<rect x="179" y="227" width="62" height="68" fill="none" stroke="#f46d43" stroke-width="2" opacity="1"/>
		<line x1="179" y1="252" x2="241" y2="252" stroke="#f46d43" stroke-width="1"/>
	</g>
	<text x="184" y="244.75" fill="#000" font-family="Verdana" font-size="12">SOURCE</text>
	<text x="184" y="269.8" fill="#000" font-family="Verdana" font-size="12">name</text>
	<line x1="184" y1="272" x2="219" y2="272" stroke="#000" stroke-width="1"/>
	<text x="184" y="286.8" fill="#000" font-family="Verdana" font-size="12">link</text>
</g>
</svg>